G04 #@! TF.GenerationSoftware,KiCad,Pcbnew,8.0.9*
G04 #@! TF.CreationDate,2026-09-28T16:25:40+02:00*
G04 #@! TF.ProjectId,sew-bit V2.0,7365772d-6269-4742-9056-322e302e6b69,rev?*
G04 #@! TF.SameCoordinates,Original*
G04 #@! TF.FileFunction,Profile,NP*
%FSLAX46Y46*%
G04 Gerber Fmt 4.6, Leading zero omitted, Abs format (unit mm)*
G04 Created by KiCad (PCBNEW 8.0.9) date 2026-09-28 16:25:40*
%MOMM*%
%LPD*%
G01*
G04 APERTURE LIST*
G04 #@! TA.AperFunction,Profile*
%ADD10C,0.399999*%
G04 #@! TD*
G04 APERTURE END LIST*
D10*
X188281521Y-33456833D02*
X189855830Y-33576553D01*
X191407248Y-33773699D01*
X192933830Y-34046325D01*
X194433625Y-34392483D01*
X195904688Y-34810224D01*
X197345070Y-35297602D01*
X198752823Y-35852668D01*
X200125999Y-36473475D01*
X201462652Y-37158075D01*
X202760832Y-37904520D01*
X204018593Y-38710862D01*
X205233986Y-39575154D01*
X206405065Y-40495449D01*
X207529880Y-41469797D01*
X208606484Y-42496252D01*
X209632930Y-43572866D01*
X210607269Y-44697691D01*
X211527555Y-45868780D01*
X212391839Y-47084184D01*
X213198173Y-48341955D01*
X213944610Y-49640147D01*
X214629201Y-50976811D01*
X215250000Y-52350000D01*
X215805059Y-53757766D01*
X216292429Y-55198161D01*
X216710162Y-56669237D01*
X217056312Y-58169047D01*
X217328931Y-59695643D01*
X217526069Y-61247078D01*
X217645781Y-62821402D01*
X217686118Y-64416670D01*
X217673488Y-65208158D01*
X217640704Y-65998165D01*
X217587846Y-66786318D01*
X217514995Y-67572245D01*
X217422231Y-68355573D01*
X217309634Y-69135929D01*
X217177285Y-69912942D01*
X217025263Y-70686240D01*
X216853650Y-71455449D01*
X216662525Y-72220197D01*
X216451968Y-72980113D01*
X216222061Y-73734823D01*
X215972882Y-74483956D01*
X215704514Y-75227138D01*
X215417035Y-75963999D01*
X215110526Y-76694164D01*
X215418975Y-77428485D01*
X215708134Y-78169620D01*
X215977921Y-78917183D01*
X216228258Y-79670786D01*
X216459064Y-80430045D01*
X216670260Y-81194572D01*
X216861767Y-81963981D01*
X217033503Y-82737887D01*
X217185390Y-83515901D01*
X217317348Y-84297640D01*
X217429297Y-85082715D01*
X217521158Y-85870742D01*
X217592850Y-86661332D01*
X217644294Y-87454101D01*
X217675410Y-88248662D01*
X217686118Y-89044628D01*
X217645791Y-90639879D01*
X217526089Y-92214189D01*
X217328960Y-93765609D01*
X217056351Y-95292193D01*
X216710211Y-96791992D01*
X216292486Y-98263059D01*
X215805126Y-99703446D01*
X215250077Y-101111205D01*
X214629288Y-102484388D01*
X213944705Y-103821048D01*
X213198278Y-105119237D01*
X212391954Y-106377006D01*
X211527680Y-107592409D01*
X210607404Y-108763497D01*
X209633075Y-109888322D01*
X208606640Y-110964938D01*
X207530046Y-111991395D01*
X206405242Y-112965747D01*
X205234175Y-113886045D01*
X204018793Y-114750342D01*
X202761044Y-115556690D01*
X201462876Y-116303140D01*
X200126236Y-116987747D01*
X198753073Y-117608560D01*
X197345333Y-118163634D01*
X195904966Y-118651019D01*
X194433918Y-119068769D01*
X192934137Y-119414935D01*
X191407572Y-119687570D01*
X189856169Y-119884725D01*
X188281877Y-120004454D01*
X186686644Y-120044807D01*
X185149431Y-120006725D01*
X183622651Y-119893147D01*
X182108845Y-119705124D01*
X180610552Y-119443709D01*
X179130316Y-119109954D01*
X177670676Y-118704913D01*
X176234174Y-118229637D01*
X174823350Y-117685179D01*
X173440746Y-117072591D01*
X172088902Y-116392926D01*
X170770360Y-115647236D01*
X169487660Y-114836573D01*
X168243343Y-113961991D01*
X167039952Y-113024541D01*
X165880025Y-112025276D01*
X164766105Y-110965248D01*
X163706066Y-109851339D01*
X162706788Y-108691423D01*
X161769324Y-107488040D01*
X160894727Y-106243732D01*
X160084049Y-104961038D01*
X159338343Y-103642500D01*
X158658662Y-102290658D01*
X158046057Y-100908053D01*
X157501582Y-99497226D01*
X157026288Y-98060717D01*
X156621229Y-96601067D01*
X156287457Y-95120817D01*
X156026024Y-93622507D01*
X155837983Y-92108679D01*
X155724387Y-90581872D01*
X155686288Y-89044628D01*
X155698851Y-88250506D01*
X155731704Y-87457881D01*
X155784766Y-86667131D01*
X155857959Y-85878636D01*
X155951202Y-85092776D01*
X156064415Y-84309929D01*
X156197518Y-83530476D01*
X156350433Y-82754795D01*
X156523078Y-81983267D01*
X156715375Y-81216269D01*
X156927243Y-80454183D01*
X157158602Y-79697387D01*
X157409374Y-78946261D01*
X157679477Y-78201184D01*
X157968832Y-77462535D01*
X158277359Y-76730694D01*
X157968833Y-75998847D01*
X157679479Y-75260193D01*
X157409376Y-74515111D01*
X157158606Y-73763980D01*
X156927246Y-73007179D01*
X156715378Y-72245088D01*
X156523082Y-71478086D01*
X156350436Y-70706553D01*
X156197521Y-69930867D01*
X156064417Y-69151409D01*
X155951203Y-68368557D01*
X155857960Y-67582690D01*
X155784767Y-66794189D01*
X155731704Y-66003433D01*
X155698851Y-65210800D01*
X155686288Y-64416670D01*
X155724378Y-62879457D01*
X155837966Y-61352678D01*
X156025998Y-59838873D01*
X156287423Y-58340582D01*
X156621186Y-56860348D01*
X157026237Y-55400711D01*
X157501522Y-53964212D01*
X158045989Y-52553392D01*
X158658586Y-51170792D01*
X159338260Y-49818953D01*
X160083957Y-48500415D01*
X160894627Y-47217721D01*
X161769217Y-45973410D01*
X162706673Y-44770025D01*
X163705943Y-43610105D01*
X164765976Y-42496192D01*
X165879889Y-41436160D01*
X167039808Y-40436889D01*
X168243194Y-39499433D01*
X169487505Y-38624844D01*
X170770199Y-37814174D01*
X172088736Y-37068476D01*
X173440575Y-36388803D01*
X174823176Y-35776207D01*
X176233996Y-35231740D01*
X177670495Y-34756455D01*
X179130132Y-34351405D01*
X180610366Y-34017642D01*
X182108656Y-33756219D01*
X183622461Y-33568188D01*
X185149241Y-33454601D01*
X186686453Y-33416512D01*
X186686270Y-33416489D01*
X188281521Y-33456833D01*
M02*
