G04 #@! TF.GenerationSoftware,KiCad,Pcbnew,8.0.9*
G04 #@! TF.CreationDate,2026-09-28T16:25:40+02:00*
G04 #@! TF.ProjectId,sew-bit V2.0,7365772d-6269-4742-9056-322e302e6b69,rev?*
G04 #@! TF.SameCoordinates,Original*
G04 #@! TF.FileFunction,Copper,L1,Top*
G04 #@! TF.FilePolarity,Positive*
%FSLAX46Y46*%
G04 Gerber Fmt 4.6, Leading zero omitted, Abs format (unit mm)*
G04 Created by KiCad (PCBNEW 8.0.9) date 2026-09-28 16:25:40*
%MOMM*%
%LPD*%
G01*
G04 APERTURE LIST*
G04 Aperture macros list*
%AMRoundRect*
0 Rectangle with rounded corners*
0 $1 Rounding radius*
0 $2 $3 $4 $5 $6 $7 $8 $9 X,Y pos of 4 corners*
0 Add a 4 corners polygon primitive as box body*
4,1,4,$2,$3,$4,$5,$6,$7,$8,$9,$2,$3,0*
0 Add four circle primitives for the rounded corners*
1,1,$1+$1,$2,$3*
1,1,$1+$1,$4,$5*
1,1,$1+$1,$6,$7*
1,1,$1+$1,$8,$9*
0 Add four rect primitives between the rounded corners*
20,1,$1+$1,$2,$3,$4,$5,0*
20,1,$1+$1,$4,$5,$6,$7,0*
20,1,$1+$1,$6,$7,$8,$9,0*
20,1,$1+$1,$8,$9,$2,$3,0*%
%AMFreePoly0*
4,1,29,0.178017,0.779942,0.347107,0.720775,0.498792,0.625465,0.625465,0.498792,0.720775,0.347107,0.779942,0.178017,0.800000,0.000000,0.779942,-0.178017,0.720775,-0.347107,0.625465,-0.498792,0.498792,-0.625465,0.347107,-0.720775,0.178017,-0.779942,0.000000,-0.800000,-0.178017,-0.779942,-0.347107,-0.720775,-0.498792,-0.625465,-0.625465,-0.498792,-0.720775,-0.347107,-0.779942,-0.178017,
-0.800000,0.000000,-0.779942,0.178017,-0.720775,0.347107,-0.625465,0.498792,-0.498792,0.625465,-0.347107,0.720775,-0.178017,0.779942,0.000000,0.800000,0.178017,0.779942,0.178017,0.779942,$1*%
%AMFreePoly1*
4,1,41,0.497552,2.812055,0.509499,2.809857,2.933640,2.209579,2.986105,2.176913,3.009349,2.119647,3.007352,2.091407,2.461285,-0.437860,2.454212,-0.450022,2.421458,-0.621725,2.324441,-0.920311,2.190767,-1.204384,2.022542,-1.469463,1.822422,-1.711368,1.593560,-1.926283,1.339567,-2.110820,1.064448,-2.262068,0.772542,-2.377641,0.468453,-2.455718,0.156975,-2.495067,-0.156976,-2.495067,
-0.468453,-2.455718,-0.772542,-2.377641,-1.064448,-2.262068,-1.339567,-2.110820,-1.593560,-1.926283,-1.822421,-1.711368,-2.022542,-1.469463,-2.190767,-1.204384,-2.324441,-0.920311,-2.421458,-0.621725,-2.480287,-0.313333,-2.500000,0.000000,-2.480288,0.313333,-2.462016,0.409111,-2.464131,0.421991,-2.463487,0.425734,-1.966538,3.018285,-1.936716,3.072417,-1.880771,3.098682,-1.856236,3.098725,
0.497552,2.812055,0.497552,2.812055,$1*%
%AMFreePoly2*
4,1,41,0.468453,2.455718,0.772542,2.377641,1.064448,2.262068,1.339567,2.110820,1.593560,1.926283,1.822422,1.711368,2.022542,1.469463,2.190767,1.204384,2.324441,0.920311,2.421458,0.621725,2.452663,0.458139,2.456595,0.453367,2.461286,0.437860,3.007352,-2.091407,3.001088,-2.152893,2.959880,-2.198953,2.933641,-2.209579,0.509499,-2.809857,0.497552,-2.812055,-1.856236,-3.098725,
-1.916894,-3.086873,-1.958998,-3.041632,-1.966538,-3.018285,-2.463487,-0.425733,-2.461645,-0.411055,-2.480287,-0.313333,-2.500000,0.000000,-2.480287,0.313333,-2.421458,0.621725,-2.324441,0.920311,-2.190767,1.204384,-2.022542,1.469463,-1.822422,1.711368,-1.593560,1.926283,-1.339567,2.110820,-1.064448,2.262068,-0.772542,2.377641,-0.468453,2.455718,-0.156977,2.495067,0.156976,2.495067,
0.468453,2.455718,0.468453,2.455718,$1*%
G04 Aperture macros list end*
G04 #@! TA.AperFunction,SMDPad,CuDef*
%ADD10R,0.800000X2.500000*%
G04 #@! TD*
G04 #@! TA.AperFunction,SMDPad,CuDef*
%ADD11RoundRect,0.000000X-0.400000X1.250000X-0.400000X-1.250000X0.400000X-1.250000X0.400000X1.250000X0*%
G04 #@! TD*
G04 #@! TA.AperFunction,ComponentPad*
%ADD12R,1.524000X2.286000*%
G04 #@! TD*
G04 #@! TA.AperFunction,ComponentPad*
%ADD13FreePoly0,0.000000*%
G04 #@! TD*
G04 #@! TA.AperFunction,ComponentPad*
%ADD14FreePoly1,140.000000*%
G04 #@! TD*
G04 #@! TA.AperFunction,ComponentPad*
%ADD15FreePoly1,152.000000*%
G04 #@! TD*
G04 #@! TA.AperFunction,ComponentPad*
%ADD16FreePoly1,164.000000*%
G04 #@! TD*
G04 #@! TA.AperFunction,ComponentPad*
%ADD17FreePoly1,175.500000*%
G04 #@! TD*
G04 #@! TA.AperFunction,ComponentPad*
%ADD18FreePoly1,182.000000*%
G04 #@! TD*
G04 #@! TA.AperFunction,ComponentPad*
%ADD19FreePoly1,16.000000*%
G04 #@! TD*
G04 #@! TA.AperFunction,ComponentPad*
%ADD20FreePoly1,28.000000*%
G04 #@! TD*
G04 #@! TA.AperFunction,ComponentPad*
%ADD21FreePoly1,40.000000*%
G04 #@! TD*
G04 #@! TA.AperFunction,ComponentPad*
%ADD22FreePoly1,51.500000*%
G04 #@! TD*
G04 #@! TA.AperFunction,ComponentPad*
%ADD23FreePoly1,58.000000*%
G04 #@! TD*
G04 #@! TA.AperFunction,ComponentPad*
%ADD24FreePoly2,41.000000*%
G04 #@! TD*
G04 #@! TA.AperFunction,ComponentPad*
%ADD25FreePoly2,29.000000*%
G04 #@! TD*
G04 #@! TA.AperFunction,ComponentPad*
%ADD26FreePoly2,17.000000*%
G04 #@! TD*
G04 #@! TA.AperFunction,ComponentPad*
%ADD27FreePoly2,5.500000*%
G04 #@! TD*
G04 #@! TA.AperFunction,ComponentPad*
%ADD28FreePoly2,359.000000*%
G04 #@! TD*
G04 #@! TA.AperFunction,ComponentPad*
%ADD29FreePoly2,162.000000*%
G04 #@! TD*
G04 #@! TA.AperFunction,ComponentPad*
%ADD30FreePoly2,150.000000*%
G04 #@! TD*
G04 #@! TA.AperFunction,ComponentPad*
%ADD31FreePoly2,138.000000*%
G04 #@! TD*
G04 #@! TA.AperFunction,ComponentPad*
%ADD32FreePoly2,126.500000*%
G04 #@! TD*
G04 #@! TA.AperFunction,ComponentPad*
%ADD33FreePoly2,120.000000*%
G04 #@! TD*
G04 #@! TA.AperFunction,ViaPad*
%ADD34C,0.600000*%
G04 #@! TD*
G04 #@! TA.AperFunction,Conductor*
%ADD35C,0.200000*%
G04 #@! TD*
G04 APERTURE END LIST*
D10*
X162600000Y-98900000D03*
D11*
X163870000Y-98880000D03*
X165140000Y-98880000D03*
X166410000Y-98880000D03*
X167680000Y-98880000D03*
X168950000Y-98880000D03*
X170220000Y-98880000D03*
X171490000Y-98880000D03*
X172760000Y-98880000D03*
X174030000Y-98880000D03*
X175300000Y-98880000D03*
X176570000Y-98880000D03*
X177840000Y-98880000D03*
X179110000Y-98880000D03*
X180380000Y-98880000D03*
X181650000Y-98880000D03*
X182920000Y-98880000D03*
X184190000Y-98880000D03*
X185460000Y-98880000D03*
X186730000Y-98880000D03*
X188000000Y-98880000D03*
X189270000Y-98880000D03*
X190540000Y-98880000D03*
X191810000Y-98880000D03*
X193080000Y-98880000D03*
X194350000Y-98880000D03*
X195620000Y-98880000D03*
X196890000Y-98880000D03*
X198160000Y-98880000D03*
X199430000Y-98880000D03*
X200700000Y-98880000D03*
X201970000Y-98880000D03*
X203240000Y-98880000D03*
X204510000Y-98880000D03*
X205780000Y-98880000D03*
X207050000Y-98880000D03*
X208320000Y-98880000D03*
X209590000Y-98880000D03*
X210860000Y-98880000D03*
X212130000Y-98880000D03*
D12*
X159700000Y-90530000D03*
X213730000Y-90530000D03*
D13*
X173700000Y-92250000D03*
X199700000Y-92250000D03*
D14*
X164800000Y-106600000D03*
D15*
X168702032Y-110557709D03*
D16*
X173341956Y-113670715D03*
D17*
X178338002Y-115800628D03*
D18*
X183971719Y-117078324D03*
D19*
X184438264Y-36674011D03*
D20*
X178975188Y-37695821D03*
D21*
X173799780Y-39801720D03*
D22*
X169240249Y-42752597D03*
D23*
X165030653Y-46708685D03*
D24*
X208625366Y-106359835D03*
D25*
X204792999Y-110385037D03*
D26*
X200208111Y-113578549D03*
D27*
X195250000Y-115795330D03*
D28*
X189639438Y-117171153D03*
D29*
X190200000Y-36850000D03*
D30*
X195624089Y-38061848D03*
D31*
X200722853Y-40347080D03*
D32*
X205176622Y-43455286D03*
D33*
X209245586Y-47555876D03*
D34*
X209550000Y-93050000D03*
X198150000Y-93050000D03*
X171450000Y-101450000D03*
X162550000Y-101450000D03*
X179100000Y-101500000D03*
X172750000Y-101300000D03*
X168950000Y-101650000D03*
D35*
X205780000Y-100797843D02*
X205780000Y-98880000D01*
X189470230Y-117107613D02*
X205780000Y-100797843D01*
X209550000Y-93050000D02*
X209590000Y-93090000D01*
X209590000Y-93090000D02*
X209590000Y-98880000D01*
X165140000Y-106260000D02*
X164800000Y-106600000D01*
X165140000Y-98880000D02*
X165140000Y-106260000D01*
X209150000Y-47651462D02*
X209150000Y-86450000D01*
X209245586Y-47555876D02*
X209150000Y-47651462D01*
X209150000Y-86450000D02*
X204510000Y-91090000D01*
X204510000Y-91090000D02*
X204510000Y-98880000D01*
X208550000Y-48351462D02*
X209295586Y-47605876D01*
X168702032Y-110557709D02*
X175300000Y-103959741D01*
X175300000Y-103959741D02*
X175300000Y-98880000D01*
X183971719Y-117078324D02*
X195620000Y-105430043D01*
X198160000Y-93060000D02*
X198160000Y-98880000D01*
X198150000Y-93050000D02*
X198160000Y-93060000D01*
X195620000Y-105430043D02*
X195620000Y-98880000D01*
X173799780Y-39801720D02*
X180050000Y-46051940D01*
X180050000Y-46051940D02*
X180050000Y-87410000D01*
X190540000Y-97900000D02*
X190540000Y-98880000D01*
X180050000Y-87410000D02*
X190540000Y-97900000D01*
X171450000Y-101450000D02*
X171490000Y-101410000D01*
X171490000Y-101410000D02*
X171490000Y-98880000D01*
X185460000Y-101552671D02*
X185460000Y-98880000D01*
X173341956Y-113670715D02*
X185460000Y-101552671D01*
X194350000Y-92850000D02*
X194350000Y-98880000D01*
X200750000Y-86450000D02*
X194350000Y-92850000D01*
X200750000Y-40374227D02*
X200750000Y-86450000D01*
X200450000Y-40719933D02*
X200772853Y-40397080D01*
X200722853Y-40347080D02*
X200750000Y-40374227D01*
X204650000Y-44081908D02*
X205226622Y-43505286D01*
X205176622Y-43455286D02*
X203240000Y-45391908D01*
X203240000Y-45391908D02*
X203240000Y-98880000D01*
X178975188Y-37695821D02*
X186300000Y-45020633D01*
X186300000Y-45020633D02*
X186300000Y-87200000D01*
X186300000Y-87200000D02*
X191810000Y-92710000D01*
X191810000Y-92710000D02*
X191810000Y-98880000D01*
X162550000Y-101450000D02*
X162600000Y-101450000D01*
X162600000Y-101400000D02*
X162600000Y-98900000D01*
X162550000Y-101450000D02*
X162600000Y-101400000D01*
X179100000Y-101450000D02*
X179110000Y-101440000D01*
X179100000Y-101500000D02*
X179180000Y-101580000D01*
X179100000Y-101500000D02*
X179100000Y-101450000D01*
X179110000Y-101440000D02*
X179110000Y-98880000D01*
X172750000Y-101300000D02*
X172750000Y-101100000D01*
X172760000Y-101090000D02*
X172760000Y-98880000D01*
X172750000Y-101100000D02*
X172760000Y-101090000D01*
X172750000Y-101300000D02*
X172800000Y-101350000D01*
X195624089Y-38061848D02*
X190650000Y-43035937D01*
X190650000Y-43035937D02*
X190650000Y-86800000D01*
X193080000Y-89230000D02*
X193080000Y-98880000D01*
X190650000Y-86800000D02*
X193080000Y-89230000D01*
X181650000Y-93850000D02*
X181650000Y-98880000D01*
X174950000Y-48462348D02*
X174950000Y-87150000D01*
X174950000Y-87150000D02*
X181650000Y-93850000D01*
X169240249Y-42752597D02*
X169240249Y-43990249D01*
X169240249Y-42752597D02*
X174950000Y-48462348D01*
X170150000Y-51828032D02*
X170150000Y-86150000D01*
X170150000Y-86150000D02*
X180380000Y-96380000D01*
X180380000Y-96380000D02*
X180380000Y-98880000D01*
X165030653Y-46708685D02*
X170150000Y-51828032D01*
X168950000Y-101650000D02*
X168950000Y-98880000D01*
M02*
