G04 #@! TF.GenerationSoftware,KiCad,Pcbnew,8.0.9*
G04 #@! TF.CreationDate,2026-09-28T16:25:40+02:00*
G04 #@! TF.ProjectId,sew-bit V2.0,7365772d-6269-4742-9056-322e302e6b69,rev?*
G04 #@! TF.SameCoordinates,Original*
G04 #@! TF.FileFunction,Paste,Top*
G04 #@! TF.FilePolarity,Positive*
%FSLAX46Y46*%
G04 Gerber Fmt 4.6, Leading zero omitted, Abs format (unit mm)*
G04 Created by KiCad (PCBNEW 8.0.9) date 2026-09-28 16:25:40*
%MOMM*%
%LPD*%
G01*
G04 APERTURE LIST*
G04 Aperture macros list*
%AMRoundRect*
0 Rectangle with rounded corners*
0 $1 Rounding radius*
0 $2 $3 $4 $5 $6 $7 $8 $9 X,Y pos of 4 corners*
0 Add a 4 corners polygon primitive as box body*
4,1,4,$2,$3,$4,$5,$6,$7,$8,$9,$2,$3,0*
0 Add four circle primitives for the rounded corners*
1,1,$1+$1,$2,$3*
1,1,$1+$1,$4,$5*
1,1,$1+$1,$6,$7*
1,1,$1+$1,$8,$9*
0 Add four rect primitives between the rounded corners*
20,1,$1+$1,$2,$3,$4,$5,0*
20,1,$1+$1,$4,$5,$6,$7,0*
20,1,$1+$1,$6,$7,$8,$9,0*
20,1,$1+$1,$8,$9,$2,$3,0*%
G04 Aperture macros list end*
%ADD10R,0.800000X2.500000*%
%ADD11RoundRect,0.000000X-0.400000X1.250000X-0.400000X-1.250000X0.400000X-1.250000X0.400000X1.250000X0*%
G04 APERTURE END LIST*
D10*
X162600000Y-98900000D03*
D11*
X163870000Y-98880000D03*
X165140000Y-98880000D03*
X166410000Y-98880000D03*
X167680000Y-98880000D03*
X168950000Y-98880000D03*
X170220000Y-98880000D03*
X171490000Y-98880000D03*
X172760000Y-98880000D03*
X174030000Y-98880000D03*
X175300000Y-98880000D03*
X176570000Y-98880000D03*
X177840000Y-98880000D03*
X179110000Y-98880000D03*
X180380000Y-98880000D03*
X181650000Y-98880000D03*
X182920000Y-98880000D03*
X184190000Y-98880000D03*
X185460000Y-98880000D03*
X186730000Y-98880000D03*
X188000000Y-98880000D03*
X189270000Y-98880000D03*
X190540000Y-98880000D03*
X191810000Y-98880000D03*
X193080000Y-98880000D03*
X194350000Y-98880000D03*
X195620000Y-98880000D03*
X196890000Y-98880000D03*
X198160000Y-98880000D03*
X199430000Y-98880000D03*
X200700000Y-98880000D03*
X201970000Y-98880000D03*
X203240000Y-98880000D03*
X204510000Y-98880000D03*
X205780000Y-98880000D03*
X207050000Y-98880000D03*
X208320000Y-98880000D03*
X209590000Y-98880000D03*
X210860000Y-98880000D03*
X212130000Y-98880000D03*
M02*
