%TF.GenerationSoftware,KiCad,Pcbnew,8.0.9*%
%TF.CreationDate,2026-09-28T16:25:45+02:00*%
%TF.ProjectId,sew-bit V2.0,7365772d-6269-4742-9056-322e302e6b69,rev?*%
%TF.SameCoordinates,Original*%
%TF.FileFunction,Drillmap*%
%TF.FilePolarity,Positive*%
%FSLAX45Y45*%
G04 Gerber Fmt 4.5, Leading zero omitted, Abs format (unit mm)*
G04 Created by KiCad (PCBNEW 8.0.9) date 2026-09-28 16:25:45*
%MOMM*%
%LPD*%
G01*
G04 APERTURE LIST*
%ADD10C,0.399999*%
%ADD11C,0.200000*%
G04 APERTURE END LIST*
D10*
X18828152Y-3345683D02*
X18985583Y-3357655D01*
X19140725Y-3377370D01*
X19293383Y-3404632D01*
X19443363Y-3439248D01*
X19590469Y-3481022D01*
X19734507Y-3529760D01*
X19875282Y-3585267D01*
X20012600Y-3647347D01*
X20146265Y-3715807D01*
X20276083Y-3790452D01*
X20401859Y-3871086D01*
X20523399Y-3957515D01*
X20640507Y-4049545D01*
X20752988Y-4146980D01*
X20860648Y-4249625D01*
X20963293Y-4357287D01*
X21060727Y-4469769D01*
X21152756Y-4586878D01*
X21239184Y-4708418D01*
X21319817Y-4834196D01*
X21394461Y-4964015D01*
X21462920Y-5097681D01*
X21525000Y-5235000D01*
X21580506Y-5375777D01*
X21629243Y-5519816D01*
X21671016Y-5666924D01*
X21705631Y-5816905D01*
X21732893Y-5969564D01*
X21752607Y-6124708D01*
X21764578Y-6282140D01*
X21768612Y-6441667D01*
X21767349Y-6520816D01*
X21764070Y-6599816D01*
X21758785Y-6678632D01*
X21751500Y-6757224D01*
X21742223Y-6835557D01*
X21730963Y-6913593D01*
X21717729Y-6991294D01*
X21702526Y-7068624D01*
X21685365Y-7145545D01*
X21666253Y-7222020D01*
X21645197Y-7298011D01*
X21622206Y-7373482D01*
X21597288Y-7448396D01*
X21570451Y-7522714D01*
X21541704Y-7596400D01*
X21511053Y-7669416D01*
X21541898Y-7742848D01*
X21570813Y-7816962D01*
X21597792Y-7891718D01*
X21622826Y-7967079D01*
X21645906Y-8043004D01*
X21667026Y-8119457D01*
X21686177Y-8196398D01*
X21703350Y-8273789D01*
X21718539Y-8351590D01*
X21731735Y-8429764D01*
X21742930Y-8508272D01*
X21752116Y-8587074D01*
X21759285Y-8666133D01*
X21764429Y-8745410D01*
X21767541Y-8824866D01*
X21768612Y-8904463D01*
X21764579Y-9063988D01*
X21752609Y-9221419D01*
X21732896Y-9376561D01*
X21705635Y-9529219D01*
X21671021Y-9679199D01*
X21629249Y-9826306D01*
X21580513Y-9970345D01*
X21525008Y-10111121D01*
X21462929Y-10248439D01*
X21394471Y-10382105D01*
X21319828Y-10511924D01*
X21239195Y-10637701D01*
X21152768Y-10759241D01*
X21060740Y-10876350D01*
X20963308Y-10988832D01*
X20860664Y-11096494D01*
X20753005Y-11199139D01*
X20640524Y-11296575D01*
X20523418Y-11388604D01*
X20401879Y-11475034D01*
X20276104Y-11555669D01*
X20146288Y-11630314D01*
X20012624Y-11698775D01*
X19875307Y-11760856D01*
X19734533Y-11816363D01*
X19590497Y-11865102D01*
X19443392Y-11906877D01*
X19293414Y-11941493D01*
X19140757Y-11968757D01*
X18985617Y-11988472D01*
X18828188Y-12000445D01*
X18668664Y-12004481D01*
X18514943Y-12000672D01*
X18362265Y-11989315D01*
X18210885Y-11970512D01*
X18061055Y-11944371D01*
X17913032Y-11910995D01*
X17767068Y-11870491D01*
X17623417Y-11822964D01*
X17482335Y-11768518D01*
X17344075Y-11707259D01*
X17208890Y-11639293D01*
X17077036Y-11564724D01*
X16948766Y-11483657D01*
X16824334Y-11396199D01*
X16703995Y-11302454D01*
X16588002Y-11202528D01*
X16476610Y-11096525D01*
X16370607Y-10985134D01*
X16270679Y-10869142D01*
X16176932Y-10748804D01*
X16089473Y-10624373D01*
X16008405Y-10496104D01*
X15933834Y-10364250D01*
X15865866Y-10229066D01*
X15804606Y-10090805D01*
X15750158Y-9949723D01*
X15702629Y-9806072D01*
X15662123Y-9660107D01*
X15628746Y-9512082D01*
X15602602Y-9362251D01*
X15583798Y-9210868D01*
X15572439Y-9058187D01*
X15568629Y-8904463D01*
X15569885Y-8825051D01*
X15573170Y-8745788D01*
X15578477Y-8666713D01*
X15585796Y-8587864D01*
X15595120Y-8509278D01*
X15606441Y-8430993D01*
X15619752Y-8353048D01*
X15635043Y-8275479D01*
X15652308Y-8198327D01*
X15671537Y-8121627D01*
X15692724Y-8045418D01*
X15715860Y-7969739D01*
X15740937Y-7894626D01*
X15767948Y-7820118D01*
X15796883Y-7746253D01*
X15827736Y-7673069D01*
X15796883Y-7599885D01*
X15767948Y-7526019D01*
X15740938Y-7451511D01*
X15715861Y-7376398D01*
X15692725Y-7300718D01*
X15671538Y-7224509D01*
X15652308Y-7147809D01*
X15635044Y-7070655D01*
X15619752Y-6993087D01*
X15606442Y-6915141D01*
X15595120Y-6836856D01*
X15585796Y-6758269D01*
X15578477Y-6679419D01*
X15573170Y-6600343D01*
X15569885Y-6521080D01*
X15568629Y-6441667D01*
X15572438Y-6287946D01*
X15583797Y-6135268D01*
X15602600Y-5983887D01*
X15628742Y-5834058D01*
X15662119Y-5686035D01*
X15702624Y-5540071D01*
X15750152Y-5396421D01*
X15804599Y-5255339D01*
X15865859Y-5117079D01*
X15933826Y-4981895D01*
X16008396Y-4850042D01*
X16089463Y-4721772D01*
X16176922Y-4597341D01*
X16270667Y-4477003D01*
X16370594Y-4361011D01*
X16476598Y-4249619D01*
X16587989Y-4143616D01*
X16703981Y-4043689D01*
X16824319Y-3949943D01*
X16948751Y-3862484D01*
X17077020Y-3781417D01*
X17208874Y-3706848D01*
X17344058Y-3638880D01*
X17482318Y-3577621D01*
X17623400Y-3523174D01*
X17767050Y-3475645D01*
X17913013Y-3435140D01*
X18061037Y-3401764D01*
X18210866Y-3375622D01*
X18362246Y-3356819D01*
X18514924Y-3345460D01*
X18668645Y-3341651D01*
X18668627Y-3341649D01*
X18828152Y-3345683D01*
D11*
X15809406Y-12335964D02*
X15809406Y-12135964D01*
X15809406Y-12135964D02*
X15857025Y-12135964D01*
X15857025Y-12135964D02*
X15885596Y-12145488D01*
X15885596Y-12145488D02*
X15904644Y-12164536D01*
X15904644Y-12164536D02*
X15914168Y-12183583D01*
X15914168Y-12183583D02*
X15923691Y-12221679D01*
X15923691Y-12221679D02*
X15923691Y-12250250D01*
X15923691Y-12250250D02*
X15914168Y-12288345D01*
X15914168Y-12288345D02*
X15904644Y-12307393D01*
X15904644Y-12307393D02*
X15885596Y-12326441D01*
X15885596Y-12326441D02*
X15857025Y-12335964D01*
X15857025Y-12335964D02*
X15809406Y-12335964D01*
X16009406Y-12335964D02*
X16009406Y-12202631D01*
X16009406Y-12240726D02*
X16018929Y-12221679D01*
X16018929Y-12221679D02*
X16028453Y-12212155D01*
X16028453Y-12212155D02*
X16047501Y-12202631D01*
X16047501Y-12202631D02*
X16066549Y-12202631D01*
X16133215Y-12335964D02*
X16133215Y-12202631D01*
X16133215Y-12135964D02*
X16123691Y-12145488D01*
X16123691Y-12145488D02*
X16133215Y-12155012D01*
X16133215Y-12155012D02*
X16142739Y-12145488D01*
X16142739Y-12145488D02*
X16133215Y-12135964D01*
X16133215Y-12135964D02*
X16133215Y-12155012D01*
X16257025Y-12335964D02*
X16237977Y-12326441D01*
X16237977Y-12326441D02*
X16228453Y-12307393D01*
X16228453Y-12307393D02*
X16228453Y-12135964D01*
X16361787Y-12335964D02*
X16342739Y-12326441D01*
X16342739Y-12326441D02*
X16333215Y-12307393D01*
X16333215Y-12307393D02*
X16333215Y-12135964D01*
X16590358Y-12335964D02*
X16590358Y-12135964D01*
X16590358Y-12135964D02*
X16657025Y-12278821D01*
X16657025Y-12278821D02*
X16723691Y-12135964D01*
X16723691Y-12135964D02*
X16723691Y-12335964D01*
X16904644Y-12335964D02*
X16904644Y-12231202D01*
X16904644Y-12231202D02*
X16895120Y-12212155D01*
X16895120Y-12212155D02*
X16876072Y-12202631D01*
X16876072Y-12202631D02*
X16837977Y-12202631D01*
X16837977Y-12202631D02*
X16818930Y-12212155D01*
X16904644Y-12326441D02*
X16885596Y-12335964D01*
X16885596Y-12335964D02*
X16837977Y-12335964D01*
X16837977Y-12335964D02*
X16818930Y-12326441D01*
X16818930Y-12326441D02*
X16809406Y-12307393D01*
X16809406Y-12307393D02*
X16809406Y-12288345D01*
X16809406Y-12288345D02*
X16818930Y-12269298D01*
X16818930Y-12269298D02*
X16837977Y-12259774D01*
X16837977Y-12259774D02*
X16885596Y-12259774D01*
X16885596Y-12259774D02*
X16904644Y-12250250D01*
X16999882Y-12202631D02*
X16999882Y-12402631D01*
X16999882Y-12212155D02*
X17018930Y-12202631D01*
X17018930Y-12202631D02*
X17057025Y-12202631D01*
X17057025Y-12202631D02*
X17076072Y-12212155D01*
X17076072Y-12212155D02*
X17085596Y-12221679D01*
X17085596Y-12221679D02*
X17095120Y-12240726D01*
X17095120Y-12240726D02*
X17095120Y-12297869D01*
X17095120Y-12297869D02*
X17085596Y-12316917D01*
X17085596Y-12316917D02*
X17076072Y-12326441D01*
X17076072Y-12326441D02*
X17057025Y-12335964D01*
X17057025Y-12335964D02*
X17018930Y-12335964D01*
X17018930Y-12335964D02*
X16999882Y-12326441D01*
X17180834Y-12316917D02*
X17190358Y-12326441D01*
X17190358Y-12326441D02*
X17180834Y-12335964D01*
X17180834Y-12335964D02*
X17171311Y-12326441D01*
X17171311Y-12326441D02*
X17180834Y-12316917D01*
X17180834Y-12316917D02*
X17180834Y-12335964D01*
X17180834Y-12212155D02*
X17190358Y-12221679D01*
X17190358Y-12221679D02*
X17180834Y-12231202D01*
X17180834Y-12231202D02*
X17171311Y-12221679D01*
X17171311Y-12221679D02*
X17180834Y-12212155D01*
X17180834Y-12212155D02*
X17180834Y-12231202D01*
M02*
