M48
; DRILL file {KiCad 8.0.9} date 2026-09-28T16:25:43+0200
; FORMAT={-:-/ absolute / metric / decimal}
; #@! TF.CreationDate,2026-09-28T16:25:43+02:00
; #@! TF.GenerationSoftware,Kicad,Pcbnew,8.0.9
; #@! TF.FileFunction,Plated,1,2,PTH
FMAT,2
METRIC
; #@! TA.AperFunction,Plated,PTH,ViaDrill
T1C0.300
; #@! TA.AperFunction,Plated,PTH,ComponentDrill
T2C0.500
; #@! TA.AperFunction,Plated,PTH,ComponentDrill
T3C1.600
; #@! TA.AperFunction,Plated,PTH,ComponentDrill
T4C3.000
%
G90
G05
T1
X162.55Y-101.45
X168.95Y-101.65
X171.45Y-101.45
X172.75Y-101.3
X179.1Y-101.5
X198.15Y-93.05
X209.55Y-93.05
T3
X173.7Y-92.25
X199.7Y-92.25
T4
X164.8Y-106.6
X165.031Y-46.709
X168.702Y-110.558
X169.24Y-42.753
X173.342Y-113.671
X173.8Y-39.802
X178.338Y-115.801
X178.975Y-37.696
X183.972Y-117.078
X184.438Y-36.674
X189.639Y-117.171
X190.2Y-36.85
X195.25Y-115.795
X195.624Y-38.062
X200.208Y-113.579
X200.723Y-40.347
X204.793Y-110.385
X205.177Y-43.455
X208.625Y-106.36
X209.246Y-47.556
T2
X159.7Y-89.83G85X159.7Y-91.23
G05
X213.73Y-89.83G85X213.73Y-91.23
G05
M30
